# AST/ASF file generated using VICON BodyLanguage
# -----------------------------------------------
:version 1.10
:name VICON
:units
  mass 1.0
  length 0.45
  angle deg
:documentation
   .ast/.asf automatically generated from VICON data using
   VICON BodyBuilder and BodyLanguage model FoxedUp or BRILLIANT.MOD
:root
   order TX TY TZ RX RY RZ
   axis XYZ
   position 0 0 0  
   orientation 0 0 0 
:bonedata
  begin
     id 1 
     name lhipjoint
     direction 0.603808 -0.713975 0.35448 
     length 2.2025 
     axis 0 0 0  XYZ
  end
  begin
     id 2 
     name lfemur
     direction 0.34202 -0.939693 0  
     length 6.55877  
     axis 0 0 20  XYZ
    dof rx ry rz
    limits (-160.0 20.0)
           (-70.0 70.0)
           (-60.0 70.0)
  end
  begin
     id 3 
     name ltibia
     direction 0.34202 -0.939693 0   
     length 6.80302   
     axis 0 0 20   XYZ
    dof rx
    limits (-10.0 170.0)
  end
  begin
     id 4 
     name lfoot
     direction 0.091848 -0.25235 0.963267   
     length 2.03446   
     axis -90 7.62852e-016 20   XYZ
    dof rx rz
    limits (-45.0 90.0)
           (-70.0 20.0)
  end
  begin
     id 5 
     name ltoes
     direction 1.53608e-011 -4.21925e-011 1   
     length 1.02033   
     axis -90 7.62852e-016 20   XYZ
    dof rx
    limits (-90.0 20.0)
  end
  begin
     id 6 
     name rhipjoint
     direction -0.587285 -0.724947 0.359928   
     length 2.16916  
     axis 0 0 0  XYZ 
  end
  begin
     id 7 
     name rfemur
     direction -0.34202 -0.939693 0   
     length 6.43173   
     axis 0 0 -20   XYZ
    dof rx ry rz
    limits (-160.0 20.0)
           (-70.0 70.0)
           (-70.0 60.0)
  end
  begin
     id 8 
     name rtibia
     direction -0.34202 -0.939693 0   
     length 6.70662   
     axis 0 0 -20   XYZ
    dof rx
    limits (-10.0 170.0)
 end
 begin
     id 9 
     name rfoot
     direction -0.11854 -0.325686 0.938018   
     length 2.0773  
     axis -90 -7.62852e-016 -20   XYZ
    dof rx rz
    limits (-45.0 90.0)
           (-20.0 70.0)
  end
  begin
     id 10 
     name rtoes
     direction -1.53547e-011 -4.21838e-011 1   
     length 1.03267   
     axis -90 -7.62852e-016 -20   XYZ
    dof rx
    limits (-90.0 20.0)
  end
  begin
     id 11 
     name lowerback
     direction -0.0286554 0.999539 0.0100613   
     length 2.08751   
     axis 0 0 0   XYZ
    dof rx ry rz
    limits (-20.0 45.0)
           (-30.0 30.0)
           (-30.0 30.0)
  end
  begin
     id 12 
     name upperback
     direction 0.0227093 0.999705 -0.00860929   
     length 2.08517   
     axis 0 0 0   XYZ
    dof rx ry rz
    limits (-20.0 45.0)
           (-30.0 30.0)
           (-30.0 30.0)
  end
  begin
     id 13 
     name thorax
     direction 0.0351627 0.999285 -0.013892   
     length 2.08412   
     axis 0 0 0   XYZ
    dof rx ry rz
    limits (-20.0 45.0)
           (-30.0 30.0)
           (-30.0 30.0)
  end
  begin
     id 14 
     name lowerneck
     direction -0.0696283 0.997344 0.0213922   
     length 1.44164   
     axis 0 0 0   XYZ
    dof rx ry rz
    limits (-20.0 45.0)
           (-30.0 30.0)
           (-30.0 30.0)
  end
  begin
     id 15 
     name upperneck
     direction 0.0531 0.990412 -0.127531   
     length 1.45022   
     axis 0 0 0   XYZ
    dof rx ry rz
    limits (-20.0 45.0)
           (-30.0 30.0)
           (-30.0 30.0)
  end
  begin
     id 16
     name head
     direction 0.0188154 0.998548 -0.0504727  
     length 1.45845  
     axis 0 0 0   XYZ
    dof rx ry rz
    limits (-20.0 45.0)
           (-30.0 30.0)
           (-30.0 30.0)
  end
  begin
     id 17 
     name lclavicle
     direction 0.961559 0.260051 0.088188  
     length 2.86057  
     axis 0 0 0   XYZ
    dof ry rz
    limits (-20.0 10.0)
           (0.0 20.0)
  end
  begin
     id 18 
     name lhumerus
     direction 1 -4.48959e-011 2.88185e-027   
     length 4.36901   
     axis 180 -30 -90   XYZ
    dof rx ry rz
    limits (-60.0 90.0)
           (-90.0 90.0)
           (-90.0 90.0)
  end
  begin
     id 19
     name lradius
     direction 1 -4.48965e-011 -3.92618e-028   
     length 3.21737   
     axis 180 -30 -90   XYZ
    dof rx
    limits (-10.0 170.0)
  end
  begin
     id 20
     name lwrist
     direction 1 -4.49037e-011 2.57246e-027   
     length 1.60869   
     axis -1.61769e-015 90 90   XYZ
    dof ry
    limits (-180.0 0.0)
 end
  begin
     id 21 
     name lhand
     direction 1 -4.48807e-011 5.12958e-027   
     length 0.564313   
     axis -3.27988e-015 90 90   XYZ
    dof rx rz
    limits (-90.0 90.0)
           (-45.0 45.0)
  end
  begin
     id 22 
     name lfingers
     direction 1 -4.48879e-011 1.02687e-026   
     length 0.454963   
     axis -6.5598e-015 90 90   XYZ
    dof rx
    limits (0.0 90.0)
  end
  begin
     id 23
     name lthumb
     direction 0.707107 -6.3475e-011 0.707107   
     length 0.653239   
     axis -90 45 2.19363e-014   XYZ
    dof rx rz
    limits (-45.0 45.0)
           (-45.0 45.0)
  end
  begin
     id 24 
     name rclavicle
     direction -0.954677 0.253915 0.155304   
     length 3.11497  
     axis 0 0 0   XYZ 
    dof ry rz
    limits (-10.0 20.0)
           (-20.0 0.0)
  end
  begin
     id 25 
     name rhumerus
     direction -1 -4.48958e-011 -8.20169e-028  
     length 4.34118   
     axis 180 30 90   XYZ
    dof rx ry rz
    limits (-90.0 60.0)
           (-90.0 90.0)
           (-90.0 90.0)
  end
  begin
     id 26 
     name rradius
     direction -1 -4.48978e-011 1.5676e-027   
     length 3.09531   
     axis 180 30 90   XYZ
    dof rx
    limits (-10.0 170.0)
  end
  begin
     id 27 
     name rwrist
     direction -1 -4.49001e-011 2.57123e-027   
     length 1.54765   
     axis -1.61769e-015 -90 -90   XYZ
    dof ry
    limits (-180.0 0.0)
  end
  begin
     id 28
     name rhand
     direction -1 -4.48847e-011 5.13225e-027   
     length 0.597446   
     axis -3.27988e-015 -90 -90   XYZ
    dof rx rz
    limits (-90.0 90.0)
           (-45.0 45.0)
  end
  begin
     id 29
     name rfingers
     direction -1 -4.49094e-011 1.02974e-026   
     length 0.481677   
     axis -6.5598e-015 -90 -90   XYZ
    dof rx
    limits (0.0 90.0)
  end
  begin
     id 30
     name rthumb
     direction -0.707107 -6.34859e-011 0.707107   
     length 0.691594   
     axis -90 -45 -2.19363e-014   XYZ
    dof rx rz
    limits (-45.0 45.0)
           (-45.0 45.0)
  end
:hierarchy
  begin
    root lhipjoint rhipjoint lowerback
    lhipjoint lfemur
    lfemur ltibia
    ltibia lfoot
    lfoot ltoes
    rhipjoint rfemur
    rfemur rtibia
    rtibia rfoot
    rfoot rtoes
    lowerback upperback
    upperback thorax
    thorax lowerneck lclavicle rclavicle
    lowerneck upperneck
    upperneck head
    lclavicle lhumerus
    lhumerus lradius
    lradius lwrist
    lwrist lhand lthumb
    lhand lfingers
    rclavicle rhumerus
    rhumerus rradius
    rradius rwrist
    rwrist rhand rthumb
    rhand rfingers
  end

#!OML:ASF G:\acrobat\cartwheel_test 2\Patient 1\Session 1\acrobat.ASF
:FULLY-SPECIFIED
:DEGREES
226
root 7.66061 14.5711 -0.48439 -9.27266 -0.145681 0.817691
lowerback -1.55501 -1.58378 -4.57331
upperback 0.751768 -2.0436 1.97429
thorax 1.88053 -1.09054 4.53773
lowerneck -1.15733 -14.3289 -14.086
upperneck 11.8906 -19.7097 7.75531
head 5.95193 -9.9147 3.15654
rclavicle 2.06736e-014 -3.22031e-014
rhumerus 46.8648 5.21965 -65.2917
rradius 19.8809
rwrist 29.4046
rhand -4.23898 30.6027
rfingers 7.12502
rthumb 21.5245 1.77871
lclavicle 2.06736e-014 -3.22031e-014
lhumerus 42.0617 -16.2681 41.4937
lradius 28.8911
lwrist 12.8256
lhand -3.8333 42.3107
lfingers 7.12502
lthumb 21.914 71.0896
rfemur -10.4502 -6.91002 11.9624
rtibia 52.525
rfoot -29.907 -15.4078
rtoes -14.9965
lfemur -14.0241 4.99279 -9.40826
ltibia 55.0326
lfoot -25.2486 11.2643
ltoes -14.3677
227
root 7.65855 14.571 -0.48281 -9.27413 -0.118592 0.84831
lowerback -1.55024 -1.58779 -4.60647
upperback 0.753697 -2.04812 1.95905
thorax 1.88101 -1.09315 4.54056
lowerneck -1.05652 -14.2974 -14.0921
upperneck 11.8028 -19.6825 7.82102
head 5.91186 -9.9016 3.19086
rclavicle 1.48095e-014 -2.0276e-014
rhumerus 46.8642 5.2154 -65.2702
rradius 19.9214
rwrist 29.3284
rhand -4.13893 30.6157
rfingers 7.12502
rthumb 21.6205 1.80272
lclavicle 1.48095e-014 -2.0276e-014
lhumerus 42.0742 -16.2794 41.4702
lradius 28.9178
lwrist 12.9229
lhand -3.75786 42.3512
lfingers 7.12502
lthumb 21.9865 71.1217
rfemur -10.4252 -6.92838 11.9217
rtibia 52.5083
rfoot -29.9149 -15.3978
rtoes -15.1906
lfemur -13.9931 4.9509 -9.42417
ltibia 55.0226
lfoot -25.3677 11.071
ltoes -13.6701
228
root 7.65834 14.5707 -0.48231 -9.29455 -0.109093 0.852326
lowerback -1.50999 -1.60208 -4.62559
upperback 0.748374 -2.06888 1.97797
thorax 1.85672 -1.10318 4.57146
lowerneck -0.954479 -14.2655 -14.1229
upperneck 11.763 -19.6501 7.83732
head 5.8837 -9.88956 3.21276
rclavicle -1.49089e-015 -1.23246e-014
rhumerus 46.912 5.24159 -65.2657
rradius 19.8881
rwrist 29.3829
rhand -4.11271 30.6973
rfingers 7.12502
rthumb 21.6457 1.88722
lclavicle -1.49089e-015 -1.23246e-014
lhumerus 42.0118 -16.169 41.5534
lradius 28.8728
lwrist 12.6819
lhand -3.54246 42.2006
lfingers 7.12502
lthumb 22.1933 70.9466
rfemur -10.389 -6.94531 11.9074
rtibia 52.497
rfoot -30.0353 -15.3383
rtoes -14.7887
lfemur -13.9778 4.96194 -9.43324
ltibia 55.0058
lfoot -25.3441 11.1158
ltoes -13.9318
229
root 7.6579 14.5711 -0.482855 -9.29722 -0.136147 0.786026
lowerback -1.45706 -1.61244 -4.57683
upperback 0.728142 -2.08706 2.02937
thorax 1.80831 -1.11041 4.59846
lowerneck -0.852346 -14.2428 -14.1486
upperneck 11.7153 -19.6248 7.81638
head 5.84955 -9.88246 3.22242
rclavicle -8.94531e-016 8.74653e-015
rhumerus 46.9703 5.33261 -65.192
rradius 19.8366
rwrist 29.3719
rhand -4.16938 30.7207
rfingers 7.12502
rthumb 21.5913 1.90439
lclavicle -8.94531e-016 8.74653e-015
lhumerus 41.9096 -16.0657 41.6577
lradius 28.8447
lwrist 12.4842
lhand -3.43826 42.0404
lfingers 7.12502
lthumb 22.2933 70.7744
rfemur -10.3988 -6.91443 12.0048
rtibia 52.503
rfoot -30.129 -15.3449
rtoes -14.4207
lfemur -13.9864 4.99992 -9.34907
ltibia 55.0224
lfoot -25.2922 11.1826
ltoes -14.1998
230
root 7.65714 14.5717 -0.483333 -9.28213 -0.139557 0.743852
lowerback -1.43231 -1.61527 -4.52886
upperback 0.708902 -2.09335 2.05017
thorax 1.77424 -1.11184 4.59371
lowerneck -0.81238 -14.2403 -14.1594
upperneck 11.7192 -19.622 7.78505
head 5.84185 -9.88438 3.21785
rclavicle -3.90612e-014 -7.95139e-016
rhumerus 46.9832 5.38701 -65.1331
rradius 19.8386
rwrist 29.3348
rhand -4.28285 30.6106
rfingers 7.12502
rthumb 21.4823 1.78179
lclavicle -3.90612e-014 -7.95139e-016
lhumerus 41.8687 -16.0935 41.6357
lradius 28.8784
lwrist 12.5243
lhand -3.51696 41.949
lfingers 7.12502
lthumb 22.2177 70.6921
rfemur -10.4216 -6.91646 12.0631
rtibia 52.5114
rfoot -30.1091 -15.3591
rtoes -14.4675
lfemur -14.0218 5.00411 -9.30593
ltibia 55.0768
lfoot -25.2477 11.2425
ltoes -14.4272
231
root 7.65616 14.5712 -0.482585 -9.28992 -0.0934879 0.765645
lowerback -1.38978 -1.60631 -4.52593
upperback 0.697471 -2.0828 2.02423
thorax 1.73621 -1.10509 4.56682
lowerneck -0.79048 -14.262 -14.1523
upperneck 11.7664 -19.6562 7.76758
head 5.85448 -9.90242 3.20788
rclavicle -1.27222e-014 3.18055e-015
rhumerus 46.9604 5.33413 -65.1382
rradius 19.8425
rwrist 29.3844
rhand -4.39468 30.4667
rfingers 7.12502
rthumb 21.3749 1.62569
lclavicle -1.27222e-014 3.18055e-015
lhumerus 41.8992 -16.1795 41.5548
lradius 28.9259
lwrist 12.6068
lhand -3.62053 41.9521
lfingers 7.12502
lthumb 22.1183 70.707
rfemur -10.4002 -6.9744 12.0175
rtibia 52.5166
rfoot -30.1424 -15.3097
rtoes -14.3792
lfemur -14.0416 4.96315 -9.34497
ltibia 55.1357
lfoot -25.2597 11.2329
ltoes -14.479
232
root 7.65482 14.5696 -0.481215 -9.28531 -0.0773487 0.784954
lowerback -1.39747 -1.59486 -4.54335
upperback 0.709563 -2.0667 2.02009
thorax 1.75167 -1.09786 4.57257
lowerneck -0.786919 -14.2865 -14.1447
upperneck 11.7989 -19.6882 7.73452
head 5.86358 -9.91935 3.19255
rclavicle -1.67973e-014 -1.74931e-014
rhumerus 46.9848 5.36798 -64.9756
rradius 19.8441
rwrist 29.1938
rhand -4.48543 30.4776
rfingers 7.12502
rthumb 21.2877 1.62667
lclavicle -1.67973e-014 -1.74931e-014
lhumerus 41.944 -16.1702 41.5846
lradius 28.9187
lwrist 12.6066
lhand -3.70515 42.0132
lfingers 7.12502
lthumb 22.0371 70.7777
rfemur -10.4456 -7.01839 11.9903
rtibia 52.6036
rfoot -30.1886 -15.3301
rtoes -14.4457
lfemur -14.0514 4.95626 -9.35846
ltibia 55.1186
lfoot -25.2856 11.1997
ltoes -14.2593
233
root 7.65378 14.5689 -0.480029 -9.24445 -0.12192 0.804534
lowerback -1.45586 -1.58383 -4.5676
upperback 0.709851 -2.04922 2.03077
thorax 1.78412 -1.09032 4.59645
lowerneck -0.972303 -14.3296 -14.0035
upperneck 11.9827 -19.7038 7.4641
head 5.91221 -9.92938 3.07298
rclavicle -1.75924e-014 2.06736e-014
rhumerus 46.9941 5.39645 -64.9076
rradius 19.8674
rwrist 29.0781
rhand -4.4547 30.5805
rfingers 7.12502
rthumb 21.3173 1.73298
lclavicle -1.75924e-014 2.06736e-014
lhumerus 41.9472 -16.1786 41.581
lradius 28.9081
lwrist 12.6309
lhand -3.781 41.997
lfingers 7.12502
lthumb 21.9643 70.77
rfemur -10.5482 -7.00239 11.993
rtibia 52.6989
rfoot -30.1522 -15.4013
rtoes -14.7626
lfemur -14.0666 4.99606 -9.36079
ltibia 55.0636
lfoot -25.2709 11.2235
ltoes -14.228
234
root 7.65353 14.5696 -0.478424 -9.21092 -0.136846 0.847381
lowerback -1.46582 -1.58638 -4.58685
upperback 0.68444 -2.05174 2.01729
thorax 1.76397 -1.09059 4.59335
lowerneck -1.20042 -14.3743 -13.7807
upperneck 12.203 -19.7111 7.11127
head 5.96188 -9.93557 2.91567
rclavicle 1.53064e-014 -3.18055e-015
rhumerus 46.9748 5.36332 -65.0149
rradius 19.8929
rwrist 29.1827
rhand -4.34932 30.5708
rfingers 7.12502
rthumb 21.4185 1.73477
lclavicle 1.53064e-014 -3.18055e-015
lhumerus 41.8969 -16.2062 41.5577
lradius 28.9241
lwrist 12.6829
lhand -3.83419 41.917
lfingers 7.12502
lthumb 21.9132 70.696
rfemur -10.5882 -7.01401 11.9551
rtibia 52.7197
rfoot -30.0942 -15.4581
rtoes -15.1755
lfemur -14.0821 5.00914 -9.4133
ltibia 55.0533
lfoot -25.2197 11.2857
ltoes -14.4301
235
root 7.65212 14.5698 -0.475843 -9.19643 -0.108093 0.841652
lowerback -1.47674 -1.5901 -4.5638
upperback 0.684402 -2.05665 2.01175
thorax 1.76956 -1.09288 4.57403
lowerneck -1.25525 -14.3977 -13.6957
upperneck 12.2496 -19.7265 6.99405
head 5.96678 -9.9441 2.86311
rclavicle 1.08338e-014 9.54166e-015
rhumerus 46.9939 5.26166 -65.1284
rradius 19.8819
rwrist 29.3447
rhand -4.29885 30.6126
rfingers 7.12502
rthumb 21.467 1.78209
lclavicle 1.08338e-014 9.54166e-015
lhumerus 41.9097 -16.2152 41.5431
lradius 28.9453
lwrist 12.7651
lhand -3.83164 41.8164
lfingers 7.12502
lthumb 21.9156 70.5951
rfemur -10.577 -7.04539 11.9594
rtibia 52.6999
rfoot -30.0706 -15.458
rtoes -15.287
lfemur -14.0972 5.02008 -9.41007
ltibia 55.0692
lfoot -25.1593 11.3637
ltoes -14.7722
236
root 7.64872 14.5692 -0.472638 -9.21724 -0.0765558 0.789252
lowerback -1.4724 -1.58757 -4.524
upperback 0.700775 -2.05441 2.02616
thorax 1.78283 -1.09212 4.56644
lowerneck -1.23858 -14.4142 -13.7158
upperneck 12.2616 -19.7498 6.98632
head 5.97155 -9.95708 2.86136
rclavicle -1.799e-014 -8.74653e-015
rhumerus 47.006 5.13351 -65.2188
rradius 19.8417
rwrist 29.5013
rhand -4.26398 30.775
rfingers 7.12502
rthumb 21.5004 1.94828
lclavicle -1.799e-014 -8.74653e-015
lhumerus 41.9388 -16.2713 41.4628
lradius 29.0076
lwrist 12.9063
lhand -3.71637 41.7712
lfingers 7.12502
lthumb 22.0263 70.5369
rfemur -10.5106 -7.02145 12.0276
rtibia 52.6552
rfoot -30.1039 -15.4053
rtoes -14.8721
lfemur -14.0603 5.02825 -9.32832
ltibia 55.0468
lfoot -25.1725 11.3532
ltoes -15.0198
237
root 7.64673 14.569 -0.469971 -9.2409 -0.0696721 0.77193
lowerback -1.45108 -1.5784 -4.50398
upperback 0.708693 -2.04345 2.02845
thorax 1.77711 -1.08645 4.55837
lowerneck -1.21508 -14.4139 -13.7376
upperneck 12.2738 -19.756 7.01274
head 5.97711 -9.96035 2.87249
rclavicle 1.85864e-014 -1.11319e-014
rhumerus 46.9805 5.1045 -65.1978
rradius 19.8374
rwrist 29.4989
rhand -4.28818 30.8638
rfingers 7.12502
rthumb 21.4772 2.03446
lclavicle 1.85864e-014 -1.11319e-014
lhumerus 41.9284 -16.303 41.4188
lradius 29.0804
lwrist 12.9799
lhand -3.57596 41.798
lfingers 7.12502
lthumb 22.1611 70.5478
rfemur -10.4481 -7.00234 12.0542
rtibia 52.6352
rfoot -30.1197 -15.4117
rtoes -14.6963
lfemur -14.0151 4.99582 -9.29158
ltibia 55.0409
lfoot -25.3139 11.1757
ltoes -14.4894
238
root 7.64585 14.5697 -0.468065 -9.25682 -0.0811411 0.782297
lowerback -1.44229 -1.59939 -4.53375
upperback 0.718255 -2.07186 2.06839
thorax 1.78795 -1.10185 4.61584
lowerneck -1.17545 -14.3696 -13.8615
upperneck 12.2579 -19.7015 7.07417
head 5.97869 -9.93689 2.91579
rclavicle 4.96962e-015 6.36111e-015
rhumerus 47.0041 5.29389 -65.0222
rradius 19.9262
rwrist 29.3309
rhand -4.31346 30.8436
rfingers 7.12502
rthumb 21.4529 2.01145
lclavicle 4.96962e-015 6.36111e-015
lhumerus 41.8252 -16.2861 41.3637
lradius 29.1562
lwrist 13.1016
lhand -3.524 41.874
lfingers 7.12502
lthumb 22.211 70.6179
rfemur -10.4215 -7.00133 12.0427
rtibia 52.6468
rfoot -30.0849 -15.4253
rtoes -14.8338
lfemur -13.999 4.94809 -9.30353
ltibia 55.0859
lfoot -25.4116 11.0909
ltoes -13.9973
